<svg preserveAspectRatio="none" overflow="visible" style="display: block;" width="67.9999" height="67.9999" viewBox="0 0 67.9999 67.9999" fill="none" xmlns="http://www.w3.org/2000/svg">
<g id="Ico/Circle/Fb">
<g id="Ellipse 176" filter="url(#filter0_d_0_195)">
<ellipse cx="33.9999" cy="20.9999" rx="15.9999" ry="15.9999" fill="#252525"/>
</g>
<path id="Vector" d="M33.9999 5C25.1632 5 17.9999 12.1633 17.9999 21C17.9999 29.8367 25.1632 37 33.9999 37C42.8365 37 49.9999 29.8367 49.9999 21C49.9999 12.1633 42.8365 5 33.9999 5ZM37.7899 16.0567H35.3849C35.0999 16.0567 34.7832 16.4317 34.7832 16.93V18.6667H37.7915L37.3365 21.1433H34.7832V28.5783H31.9449V21.1433H29.3699V18.6667H31.9449V17.21C31.9449 15.12 33.3949 13.4217 35.3849 13.4217H37.7899V16.0567Z" fill="#DCB67E"/>
</g>
<defs>
<filter id="filter0_d_0_195" x="0" y="0" width="67.9999" height="67.9999" filterUnits="userSpaceOnUse" color-interpolation-filters="sRGB">
<feFlood flood-opacity="0" result="BackgroundImageFix"/>
<feColorMatrix in="SourceAlpha" type="matrix" values="0 0 0 0 0 0 0 0 0 0 0 0 0 0 0 0 0 0 127 0" result="hardAlpha"/>
<feOffset dy="13"/>
<feGaussianBlur stdDeviation="9"/>
<feColorMatrix type="matrix" values="0 0 0 0 0.0658854 0 0 0 0 0.0730469 0 0 0 0 0.1375 0 0 0 0.08 0"/>
<feBlend mode="normal" in2="BackgroundImageFix" result="effect1_dropShadow_0_195"/>
<feBlend mode="normal" in="SourceGraphic" in2="effect1_dropShadow_0_195" result="shape"/>
</filter>
</defs>
</svg>
